<svg xmlns="http://www.w3.org/2000/svg" id="Layer_1" data-name="Layer 1" viewBox="0 0 500 500"><defs><style>.cls-1{fill:#fff}</style></defs><title>community</title><circle cx="314" cy="201" r="15" class="cls-1"/><path d="M306.7,96.79a55.15,55.15,0,0,1,47.63,27.5L411,222.5a55.17,55.17,0,0,1,0,55l-56.7,98.21a55.15,55.15,0,0,1-47.63,27.5H193.3a55.15,55.15,0,0,1-47.63-27.5L89,277.5a55.17,55.17,0,0,1,0-55l56.7-98.21a55.15,55.15,0,0,1,47.63-27.5H306.7m0-20H193.3a75,75,0,0,0-65,37.5L71.65,212.5a75,75,0,0,0,0,75l56.7,98.21a75,75,0,0,0,65,37.5H306.7a75,75,0,0,0,64.95-37.5l56.7-98.21a75,75,0,0,0,0-75l-56.7-98.21a75,75,0,0,0-64.95-37.5Z" class="cls-1"/><path d="M255,216H192a15,15,0,0,1,0-30h63a15,15,0,0,1,0,30Z" class="cls-1"/><circle cx="314" cy="301" r="15" class="cls-1"/><path d="M255,316H192a15,15,0,0,1,0-30h63a15,15,0,0,1,0,30Z" class="cls-1"/><circle cx="193" cy="251" r="15" class="cls-1"/><path d="M315,266H252a15,15,0,0,1,0-30h63a15,15,0,0,1,0,30Z" class="cls-1"/></svg>